<?xml version="1.0" encoding="UTF-8"?><svg id="a" xmlns="http://www.w3.org/2000/svg" width="24" height="24" viewBox="0 0 24 24"><path d="m12.00017,6.75c1.5166,0,2.75-1.2334,2.75-2.75s-1.2334-2.75-2.75-2.75-2.75,1.2334-2.75,2.75,1.2334,2.75,2.75,2.75Zm0-4c.68945,0,1.25.56055,1.25,1.25s-.56055,1.25-1.25,1.25-1.25-.56055-1.25-1.25.56055-1.25,1.25-1.25Zm8.10645,4.50781c-.41309-.06836-.79102.22559-.84863.63574l-.47949,3.35645h-3.31445l-1.79297-3.58496c-.12695-.25488-.38672-.41504-.6709-.41504h-4c-.14795,0-.29297.04395-.41602.12598l-3,2c-.1084.07227-.19629.17188-.25488.28906l-2,4c-.18506.37012-.03516.82031.33545,1.00586.10791.05371.22217.0791.33496.0791.2749,0,.54004-.15137.67139-.41504l1.91064-3.82129,1.43848-.95898-.7627,5.33887c-.00488.03516-.00732.07129-.00732.10645v2.82324l-1.92139,3.84082c-.18506.37109-.03516.82129.33545,1.00684.10791.05371.22217.0791.33496.0791.2749,0,.54004-.15137.67139-.41406l2.00049-4c.05176-.10449.0791-.21973.0791-.33594v-2.25h2.84869l1.57416,2.36035-.88428,2.65234c-.13086.39355.08105.81738.47412.94922.07861.02539.15869.03809.2373.03809.31445,0,.60645-.19824.71191-.5127l1-3c.07324-.21973.04004-.46094-.08789-.65332l-1.84082-2.76172.62006-4.33899.92584,1.85168c.12695.25488.38672.41504.6709.41504h3.56403l-1.30621,9.14355c-.05859.41016.22559.79004.63574.84863.03613.00586.07227.00781.10742.00781.36719,0,.68848-.26953.74121-.64355l2-14c.05859-.41016-.22559-.79004-.63574-.84863Zm-8.75714,6.99219h-2.48444l.78589-5.5h2.48444l-.78589,5.5Z" stroke-width="0"/></svg>